<mxfile host="app.diagrams.net" modified="2024-07-18T16:00:22.980Z" agent="Mozilla/5.0 (Macintosh; Intel Mac OS X 10_15_7) AppleWebKit/605.1.15 (KHTML, like Gecko) Version/16.6 Safari/605.1.15" version="24.7.1" etag="384Uoi4sxjGYq2wiQI3o" type="github">
  <diagram name="Page-1" id="eeZhJJYqSdkIcSQRqws1">
    <mxGraphModel>
      <root>
        <mxCell id="0" />
        <mxCell id="1" parent="0" />
      </root>
    </mxGraphModel>
  </diagram>
</mxfile>
